<?xml version="1.0" encoding="UTF-8"?>
<svg width="128" height="128" viewBox="0 0 128 128" xmlns="http://www.w3.org/2000/svg">
  <!-- Background circle -->
  <circle cx="64" cy="64" r="60" fill="#4A90E2" stroke="#2E5C8A" stroke-width="4"/>

  <!-- Document icon -->
  <path d="M40 20 L40 108 L88 108 L88 48 L40 48 Z" fill="#FFFFFF" stroke="#333333" stroke-width="2"/>

  <!-- Document fold -->
  <path d="M88 48 L88 20 L72 20 Z" fill="#E0E0E0" stroke="#333333" stroke-width="2"/>

  <!-- Line numbers -->
  <line x1="48" y1="36" x2="80" y2="36" stroke="#333333" stroke-width="2" stroke-linecap="round"/>
  <line x1="48" y1="48" x2="80" y2="48" stroke="#333333" stroke-width="2" stroke-linecap="round"/>
  <line x1="48" y1="60" x2="80" y2="60" stroke="#333333" stroke-width="2" stroke-linecap="round"/>
  <line x1="48" y1="72" x2="80" y2="72" stroke="#333333" stroke-width="2" stroke-linecap="round"/>

  <!-- Clipboard/copy icon -->
  <rect x="78" y="74" width="28" height="28" rx="4" fill="#4A90E2" stroke="#2E5C8A" stroke-width="2"/>
  <rect x="84" y="78" width="16" height="4" fill="#FFFFFF"/>
  <rect x="84" y="84" width="16" height="4" fill="#FFFFFF"/>
  <rect x="84" y="90" width="12" height="4" fill="#FFFFFF"/>
  <rect x="84" y="96" width="8" height="4" fill="#FFFFFF"/>

  <!-- Selected line highlight -->
  <rect x="44" y="58" width="40" height="4" fill="#FFD700" opacity="0.5"/>
</svg>
